<?xml version="1.0" encoding="UTF-8" standalone="no"?>
<!-- Created with Inkscape (http://www.inkscape.org/) -->

<svg
   xmlns:dc="http://purl.org/dc/elements/1.1/"
   xmlns:cc="http://creativecommons.org/ns#"
   xmlns:rdf="http://www.w3.org/1999/02/22-rdf-syntax-ns#"
   xmlns:svg="http://www.w3.org/2000/svg"
   xmlns="http://www.w3.org/2000/svg"
   xmlns:sodipodi="http://sodipodi.sourceforge.net/DTD/sodipodi-0.dtd"
   xmlns:inkscape="http://www.inkscape.org/namespaces/inkscape"
   width="100"
   height="99.999992"
   viewBox="0 0 99.999997 99.999996"
   id="svg4709"
   version="1.1"
   inkscape:version="0.91 r13725"
   sodipodi:docname="spinner.svg">
  <defs
     id="defs4711" />
  <sodipodi:namedview
     id="base"
     pagecolor="#ffffff"
     bordercolor="#666666"
     borderopacity="1.0"
     inkscape:pageopacity="0.0"
     inkscape:pageshadow="2"
     inkscape:zoom="0.98994949"
     inkscape:cx="342.04761"
     inkscape:cy="179.71101"
     inkscape:document-units="px"
     inkscape:current-layer="layer1"
     showgrid="false"
     fit-margin-top="0"
     fit-margin-left="0"
     fit-margin-right="0"
     fit-margin-bottom="0"
     units="px"
     inkscape:window-width="1920"
     inkscape:window-height="1017"
     inkscape:window-x="-8"
     inkscape:window-y="-8"
     inkscape:window-maximized="1" />
  <metadata
     id="metadata4714">
    <rdf:RDF>
      <cc:Work
         rdf:about="">
        <dc:format>image/svg+xml</dc:format>
        <dc:type
           rdf:resource="http://purl.org/dc/dcmitype/StillImage" />
        <dc:title></dc:title>
      </cc:Work>
    </rdf:RDF>
  </metadata>
  <g
     inkscape:label="Layer 1"
     inkscape:groupmode="layer"
     id="layer1"
     transform="translate(518.01252,218.22937)">
    <path
       style="fill:#2dccd2;fill-opacity:1;stroke:none;stroke-opacity:1"
       d="m -472.41645,-118.37961 c -20.16456,-1.66106 -38.48631,-16.65092 -43.70555,-36.28018 -5.63753,-19.02975 1.66431,-40.89613 17.49302,-52.82962 16.29945,-12.99989 40.85273,-14.50253 58.28154,-2.84002 12.33644,8.1016 20.98164,21.89596 22.33492,36.63318 -2.03386,5.8026 -8.61034,0.95073 -7.48246,-3.77248 -3.22995,-14.79759 -14.28957,-27.89961 -28.9626,-32.29015 -6.84299,-2.27484 -14.26138,-2.34837 -21.34163,-1.41895 -16.38171,2.85765 -30.4669,15.55703 -34.91948,31.59121 -5.03974,16.4968 0.93165,35.43704 14.18557,46.38108 15.25602,13.32251 39.44908,14.37162 55.88897,2.59912 10.03349,-6.75224 16.18972,-18.42402 19.52163,-29.37394 -0.25538,14.79252 -9.95586,28.34415 -22.57017,35.51395 -8.66253,4.99354 -18.81566,6.80218 -28.72376,6.0868 z"
       id="path4696"
       inkscape:connector-curvature="0" />
  </g>
</svg>
